<svg width="220.717331" height="34.523438" viewBox="0 0 220.717 34.5234" fill="none" xmlns="http://www.w3.org/2000/svg" xmlns:xlink="http://www.w3.org/1999/xlink">
	<desc>
			Created with Pixso.
	</desc>
	<path d="M185.122 18.7734Q185.359 14.9414 185.359 10.1162L185.359 6.97852Q185.148 6.73242 184.48 5.99414Q183.812 5.25586 183.091 4.67578Q182.59 4.74609 182.23 4.93066Q181.87 5.10645 181.404 5.43164Q180.903 5.79199 180.578 5.94141Q180.217 6.01172 178.881 6.47754Q176.974 7.12793 175.392 7.54102Q173.81 7.9541 172.509 7.9541Q172.008 7.9541 171.753 7.91895Q171.824 7.45312 172.799 6.23145Q173.775 5.00098 175.251 3.26953Q175.251 2.55762 175.102 2.37305Q174.961 1.90723 174.091 1.35352Q173.23 0.791016 172.131 0.395508Q171.033 0 170.242 0Q169.811 0 169.451 0.175781Q169.486 0.641602 169.591 0.826172Q169.706 1.00195 170.101 1.11621Q169.917 2.95312 168.906 5.92383Q167.904 8.88574 166.928 10.3975Q166.717 11.0127 165.812 12.2695Q165.056 13.4297 164.916 13.7109Q165.926 13.7109 167.438 12.3838Q168.95 11.0479 169.776 9.79102L170.461 9.79102Q170.602 11.3027 169.697 14.5986Q168.8 17.8857 167.447 21.3838Q166.102 24.873 165.021 26.7451Q166.498 26.4551 167.543 25.5234Q168.589 24.583 169.741 22.623Q170.892 20.6631 172.975 16.4531Q173.054 16.2686 173.793 14.3789Q174.531 12.4893 174.417 10.8721Q174.381 10.7578 174.636 10.582Q174.891 10.3975 175.269 10.2568Q175.647 10.1162 176.007 10.1514Q175.533 14.5459 173.916 19.1689Q172.298 23.792 170.136 27.6855Q167.974 31.5703 165.847 33.873Q168.554 33.7676 171.771 29.8389Q174.997 25.9189 177.229 20.4873Q179.461 15.0469 179.461 10.8018Q179.461 9.86133 179.347 9.07031Q180.033 9.03516 180.226 9.16699Q180.428 9.29004 180.578 9.3252Q180.753 10.7578 180.753 12.5596Q180.753 16.7344 180.085 21.5771Q179.426 26.4199 178.635 27.7207Q178.31 28.582 177.589 28.8633Q176.869 29.1533 175.462 29.3379Q175.032 29.373 174.17 29.5137Q174.452 29.5576 175.963 30.9199Q177.554 32.3613 178.741 33.2402Q179.927 34.1279 180.859 34.1279Q181.298 34.1279 181.659 33.8379Q182.485 33.2227 182.696 32.8623Q182.916 32.502 182.916 31.9307Q182.916 31.3154 182.968 30.8145Q183.021 30.3135 183.241 29.5137Q183.777 27.5361 184.208 25.5938Q184.893 22.6055 185.122 18.7734ZM29.5488 17.0508Q28.2217 16.4883 26.6748 15.4072Q28.1162 15.4775 29.083 15.4775Q32.0713 15.4775 32.792 14.9414Q33.082 14.8623 33.2227 14.6865Q33.3721 14.502 33.4424 14.3965Q33.4424 14.1064 32.001 12.832Q30.5596 11.5576 30.2432 11.4785Q29.7334 11.373 29.2676 11.4873Q28.8018 11.5928 27.8965 11.874Q26.9648 12.2344 26.1738 12.3838Q22.3154 12.3838 20.3906 12.4893Q18.4658 12.5947 15.3018 13.1045Q15.627 12.1289 16.0225 11.5137Q18.1055 10.7227 21.9551 10.7227Q22.4648 10.7227 22.8252 10.7578L24.7676 10.8018Q27.3604 10.8018 27.8262 10.3975Q28.1162 10.3271 28.2744 10.1514Q28.4414 9.9668 28.582 9.86133Q28.1514 9.46582 27.7734 8.98242Q27.3955 8.49023 27.2549 8.31445Q26.8154 7.73438 26.5605 7.48828Q26.3145 7.2334 25.9893 7.2334Q25.7432 7.2334 25.3828 7.41797L22.8955 7.66406Q21.2432 7.88379 19.582 8.05078Q17.9297 8.20898 17.5693 8.12988Q17.71 7.69922 17.8682 7.41797Q18.0352 7.12793 18.2812 6.78516Q18.5361 6.44238 18.7207 6.1875Q19.6875 5.79199 22.6406 5.79199L26.5693 5.82715Q28.9072 5.82715 30.1992 5.58105Q30.2432 5.43164 30.2432 5.18555Q30.2432 4.53516 29.6631 3.38379Q29.5225 3.09375 29.4258 2.86523Q29.3379 2.62793 29.4082 2.51367Q27.791 2.23242 26.4551 2.23242Q25.418 2.23242 23.7217 2.47852Q21.7793 2.76855 19.9072 2.83887Q20.0127 1.87207 20.0127 1.80176Q20.0127 1.29199 19.8018 1.08105Q19.6172 0.685547 18.0527 0.430664Q16.4883 0.175781 14.792 0.175781Q13.0342 0.175781 12.4893 0.46582Q12.6035 0.791016 13.0342 1.39746Q13.3154 1.75781 13.4385 2.04785Q13.5703 2.33789 13.5703 2.87402Q13.5703 3.31348 13.4648 3.95508Q11.6982 4.28027 8.02441 4.28027Q3.27832 4.28027 1.18652 3.59473Q1.32715 3.95508 1.56445 4.51758Q1.80176 5.07129 2.06543 5.63379Q2.33789 6.1875 2.91797 7.01367Q3.27832 7.2334 4.93066 7.2334Q6.94336 7.2334 9.51855 6.92578Q12.0938 6.61816 12.6738 6.30176Q12.6738 7.01367 12.5771 7.52344Q12.4893 8.02441 12.1992 8.78027Q10.9424 9.10547 8.88574 9.29004Q6.83789 9.46582 4.89551 9.46582Q3.09375 9.46582 2.12695 9.3252Q2.30273 10.5117 2.75098 11.2148Q3.19922 11.918 4.06934 12.5244Q5.18555 12.5244 7.50586 12.2783Q9.82617 12.0234 10.292 11.6982L10.8369 11.6982Q10.7666 11.9883 10.7227 12.3838Q10.6875 12.7793 10.5996 13.0693Q10.5117 13.3506 10.292 13.5703Q9.79102 13.9307 8.58691 14.0625Q7.38281 14.1855 5.36133 14.1855L2.04785 14.1855Q1.80176 14.2207 1.22168 14.001Q1.11621 13.9658 0.896484 13.8955Q0.685547 13.8252 0.46582 13.8252Q0.210938 13.8252 0 13.9307Q0.0351562 14.5811 0.298828 15.1963Q0.571289 15.8027 1.11621 16.6641Q1.58203 17.2793 1.61719 17.6045Q2.62793 17.4902 3.91992 17.2793Q6.54785 16.8135 7.45312 16.6641Q7.26855 17.1299 5.93262 18.668Q4.60547 20.1973 3.05859 21.6211Q1.51172 23.0361 0.650391 23.4316Q3.16406 22.9658 4.79883 22.4297Q6.44238 21.8848 7.81348 20.9531Q8.24414 21.9551 8.55176 24.0117Q8.85938 26.0596 8.81543 28.6523Q8.6748 29.8037 8.6748 30.709Q8.6748 31.6758 8.81543 32.124Q8.96484 32.5811 9.19336 32.8447Q9.43066 33.1172 9.43066 33.2578Q10.4414 34.4883 10.8721 34.4883Q11.0479 34.4883 11.3027 34.374Q11.5576 34.2686 11.6982 34.1982Q11.6982 33.9434 12.0586 33.6885Q12.4189 33.4424 12.6123 33.2227Q12.8145 33.0117 12.9551 32.6162Q14.1152 32.2559 15.4951 31.9658Q16.8838 31.6758 17.9648 31.6758Q18.6152 31.6758 19.6699 31.8691Q20.7334 32.0713 21.1641 32.291Q21.2432 32.3262 22.1396 32.7568Q23.0361 33.1875 23.291 33.9434Q24.873 33.9434 25.4883 32.915Q26.1035 31.8955 26.0596 29.2324L26.9648 21.3135Q26.9648 21.1992 27.1406 20.6279Q29.0479 22.7109 30.8496 22.7109L32.9414 20.6631Q33.7324 19.8018 34.6992 18.8613L33.9873 18.6416Q30.8848 17.6045 29.5488 17.0508ZM43.8399 9.57129Q44.4199 9.53613 44.7451 9.46582Q46.9072 9.21094 48.709 9.14062Q50.9414 9 51.9873 8.81543Q51.8731 9.60645 51.8027 11.1445Q51.7324 12.6738 51.7324 13.9307Q51.7324 14.9414 51.8027 15.082Q51.9434 15.4072 52.1983 15.5918Q52.4531 15.7676 52.919 16.0576Q53.6045 16.4883 53.71 16.5938Q54.211 16.5586 54.5186 16.3652Q54.8262 16.1631 55.2569 15.7324Q55.6172 15.3018 55.8721 15.1172Q55.8721 14.6162 55.9072 14.3965L55.9424 11.9531Q55.9424 10.3271 55.8545 9.55371Q55.7666 8.78027 55.749 8.60449Q55.7315 8.41992 55.8721 8.34961Q56.2676 8.20898 57.709 8.20898L61.3828 8.24414Q64.582 8.24414 66.3838 7.9541L66.1641 9.17578Q65.6631 11.874 65.6631 12.4541Q65.6631 12.709 65.6983 12.7793Q65.8828 12.7793 66.8145 11.9355Q67.7549 11.083 68.7217 10.1162Q68.9766 9.89648 69.7852 9.10547Q70.5938 8.31445 70.8135 8.20898Q70.5938 6.97852 69.7852 6.24023Q68.9766 5.50195 68.1504 5.50195Q67.8955 5.4668 67.5352 5.4668Q67.0694 5.4668 66.6738 5.61621Q66.2783 5.75684 66.0235 5.82715Q65.3379 5.65137 63.3604 5.65137Q61.9893 5.65137 60.9258 5.68652Q59.8711 5.72168 59.1856 5.75684Q56.6631 5.8623 55.6875 5.82715Q55.582 5.72168 55.582 5.36133L55.6172 4.64062Q55.6172 4.20996 55.4414 4.1748Q56.4873 3.91992 62.3848 3.48926Q62.8594 3.70898 63.3779 3.86719Q63.8965 4.02539 64.3711 4.02539Q64.8721 4.02539 65.2324 3.84961Q64.9424 1.90723 64.7578 1.25684Q64.582 0.606445 63.9492 0.606445L63.1055 0.606445Q62.9649 0.571289 62.3496 0.571289Q60.9873 0.571289 59.3965 0.861328Q59.4247 0.848817 59.4239 0.838531Q59.4224 0.819916 59.3262 0.808594Q59.1856 0.791016 59.001 0.791016Q57.8145 0.791016 55.0811 1.00195Q53.2362 1.12543 53.2341 1.09885Q53.2336 1.09326 53.3145 1.08105Q50.9063 1.29199 46.582 1.3623Q46.1514 1.3623 44.7276 1.40625Q43.3037 1.44141 42.5127 1.54688Q42.9434 3.09375 43.3389 3.62109Q43.7432 4.13965 44.6748 4.1748Q44.8154 4.24512 45.4307 4.24512Q46.0459 4.24512 47.9883 4.10449Q49.6055 3.91992 50.6514 3.91992Q51.4424 3.91992 51.627 4.06934Q51.6621 4.20996 51.7149 4.62305Q51.7676 5.03613 51.7676 5.39648Q51.7676 5.89746 51.627 6.1875Q50.6865 6.1875 48.3486 6.44238Q45.1758 6.73242 43.8838 6.73242Q42.9082 6.73242 42.583 6.58301L41.8272 6.58301Q41.8379 6.58301 41.8436 6.57765Q41.8984 6.52598 41.4844 5.97656Q41.0361 5.36133 40.5352 4.87793Q40.0342 4.38574 39.7793 4.53516Q39.5244 5.03613 39.2432 6.11719Q39.0235 6.97852 38.8828 7.30371Q38.7334 7.76953 38.2676 8.52539Q37.8721 9.21094 37.6524 9.82617Q37.4766 10.2568 37.4766 10.6172Q37.4766 11.9883 38.3906 13.3066Q39.3135 14.6162 39.3838 14.7217Q40.2451 13.8955 40.5879 13.1748Q40.9307 12.4541 41.2559 11.2676Q41.3262 11.0479 41.4492 10.582Q41.5811 10.1162 41.7217 9.75586Q41.9766 9.60645 43.0576 9.60645Q43.2686 9.60645 43.8399 9.57129ZM105.46 15.9609Q105.803 8.02441 106.058 7.55859Q106.058 6.5127 105.662 5.99414Q105.267 5.4668 104.476 4.93066Q104.397 4.86035 104.019 4.58789Q103.641 4.31543 103.395 3.99023Q102.674 4.02539 102.349 4.24512Q102.023 4.46484 101.769 4.89551Q101.373 5.4668 101.048 5.68652Q100.652 5.89746 100.151 6.08203L99.2549 6.5127Q99.2686 6.49618 99.2653 6.48424Q99.2187 6.31191 95.6514 7.09277Q93.0938 7.62891 91.8282 7.83105Q90.8531 7.98106 90.8091 7.84013Q90.7963 7.7994 90.8614 7.73438Q94.2803 6.04688 95.502 5.18555Q96.7325 4.31543 96.7325 3.55957Q96.7325 3.34863 96.627 3.09375Q96.4424 2.37305 95.1241 1.73145Q93.8145 1.08105 92.1621 0.606445Q91.8369 2.26758 91.5469 3.14648Q91.2569 4.02539 90.8614 4.71094Q90.4659 5.39648 89.5342 6.73242L88.8487 7.73438Q87.8379 6.30176 87.17 5.72168Q86.5108 5.1416 85.5703 5.1416Q85.21 5.1416 84.9991 5.18555Q85.0342 6.1875 85.1397 6.66211Q85.21 7.01367 85.2803 7.73438Q85.4297 8.2793 85.4297 9.17578Q85.4297 9.68555 85.3594 11.0479Q85.2451 13.5352 85.2451 13.8252Q85.1397 17.5693 84.7793 22.6406Q84.6739 23.3613 84.5596 25.0576Q84.4541 26.7451 84.4541 28.1514Q84.4541 29.7334 84.6035 30.1641Q84.7442 30.709 86.1241 31.6934Q87.5127 32.6865 87.6621 32.792L87.627 32.792Q87.6621 32.8271 87.6797 32.8096Q87.6868 32.8025 87.6853 32.7983Q87.6832 32.792 87.6621 32.792Q88.128 32.5459 88.3213 31.8955Q88.5235 31.2451 88.6641 30.0586Q88.8487 28.9072 88.8838 28.7227Q89.0596 27.2461 89.0596 23.1416Q89.0596 20.8389 89.0069 17.71Q88.9541 14.5811 88.919 13.21L88.8487 10.4414L91.5117 10.1865Q99.4307 9.50098 101.048 9Q101.373 9.50098 101.514 10.582Q101.663 11.6631 101.663 13.6406Q101.663 17.2793 101.048 27.6855Q100.907 28.0811 100.415 28.2393Q99.9317 28.3975 99.0703 28.5469Q97.9541 28.6875 97.4883 28.9424Q97.9893 29.4785 99.1407 30.3838Q99.9756 31.0254 100.617 31.6406Q101.268 32.2559 102.278 33.5479Q103.5 33.082 104.361 31.5176Q105.231 29.9531 105.231 28.3623Q105.231 27.8613 105.117 27.3955Q105.117 23.8975 105.46 15.9609ZM166.952 15.6773Q166.881 15.6137 166.717 15.6533Q166.866 15.5683 166.865 15.5662Q166.863 15.5621 166.322 15.8555Q165.496 16.3037 164.626 16.7344L163.219 17.4902L163.369 10.6172Q163.975 10.6172 165.707 10.7578Q166.102 10.4414 166.102 10.0811Q166.102 9.86133 166.014 9.43066Q165.926 9 165.926 8.45508Q165.812 7.66406 165.021 7.66406Q164.696 7.66406 164.116 7.77832Q163.544 7.88379 163.219 7.9541Q163.219 5.97656 163.342 4.66699Q163.474 3.34863 164.019 2.62793Q163.905 1.83691 162.666 1.2832Q161.426 0.720703 160.126 0.720703Q159.124 0.720703 158.543 1.08105Q159.009 1.72266 159.335 4.35059Q159.66 6.97852 159.66 9.14062Q159.405 9.21094 158.236 9.51855Q157.331 9.75678 157.321 9.72618Q157.319 9.71727 157.392 9.68555Q158.904 7.41797 158.904 6.1875Q158.904 5.25586 158.148 4.75488Q157.392 4.24512 155.661 3.62988L154.043 3.02344Q154.58 3.99023 154.58 4.86035Q154.58 5.43164 154.334 6.5127Q154.114 7.26855 154.043 7.84863Q154.043 7.9541 151.591 16.9893Q152.207 16.3037 153.929 14.3086Q155.661 12.3135 155.986 11.874Q156.276 11.8037 156.794 12.0586Q157.322 12.3135 157.462 12.6299Q157.928 12.3838 158.561 12.1553Q159.194 11.918 159.475 11.8037Q159.554 11.9883 159.607 13.1396Q159.66 14.291 159.66 15.583Q159.66 18.7559 159.405 19.1514Q159.37 19.7578 158.359 20.54Q157.357 21.3135 156.074 21.999Q154.799 22.6758 154.043 22.9307Q153.753 23.001 153.648 23.001Q153.358 23.001 153.068 22.8604Q152.787 22.7109 152.672 22.5352Q152.312 22.6055 152.189 22.7373L151.996 22.9307Q152.031 24.1875 152.945 25.5762Q153.868 26.9648 154.905 27.791Q156.961 27.501 159.194 24.1875Q159.229 25.0137 159.37 25.7695Q159.475 26.3496 159.475 26.9297Q159.475 27.5713 159.405 28.0811Q159.37 28.4414 159.229 29.1533Q158.869 30.9551 158.869 32.1416Q159.299 32.8623 159.967 33.583Q160.635 34.3037 161.101 34.5234Q162.147 34.3389 162.463 32.9502Q162.789 31.5703 162.789 29.5928Q162.753 28.7578 162.753 27.791L162.753 26.8154Q162.789 26.3145 162.789 24.6182L162.789 21.0234Q163.624 20.4785 164.608 19.4062Q165.601 18.3252 166.304 17.2793Q167.007 16.2334 167.007 15.8379Q167.007 15.7266 166.952 15.6773ZM219.241 29.6367Q218.555 28.6875 217.008 27.791Q216.753 27.8965 213.888 28.2393Q211.032 28.582 209.3 28.582Q208.079 28.582 207.753 28.3975Q207.578 27.1406 207.578 24.9434L207.613 21.7793Q208.114 21.709 208.835 21.709Q209.555 21.709 211.788 21.7793Q213.695 21.8848 215.532 21.8848Q218.23 21.8848 218.415 21.4893Q218.054 20.4785 216.903 18.8613Q216.217 17.9297 215.998 17.4199Q215.532 17.1738 214.776 17.1738Q213.879 17.1738 211.568 17.5693Q210.452 17.7803 207.753 18.1406Q207.824 17.4551 207.912 16.8486Q208.008 16.2334 208.026 15.75Q208.044 15.2578 208.044 14.4668L208.079 12.4541Q208.58 12.3135 210.381 12.3135L212.403 12.3135Q214.09 12.3135 215.189 12.208Q216.288 12.0938 216.718 11.7334Q216.859 11.6982 216.964 11.6279Q217.079 11.5576 217.149 11.4346Q217.219 11.3027 217.263 11.2676Q216.938 10.4414 216.34 9.41309Q215.752 8.38477 215.347 8.02441Q214.996 7.84863 214.591 7.84863Q214.161 7.84863 212.614 8.17383Q210.671 8.63965 208.149 8.96484L208.149 7.09277Q208.149 5.68652 208.272 4.68457Q208.404 3.67383 208.764 2.80371Q208.184 2.04785 206.488 1.70508Q204.8 1.3623 202.172 1.22168Q202.287 1.72266 202.717 2.7334L203.043 3.55957Q203.473 4.1748 203.579 5.77441Q203.684 7.37402 203.684 9.6416L202.823 9.79102Q201.601 10.002 200.028 10.2568Q198.463 10.5117 197.637 10.5117Q197.066 10.5117 196.881 10.3975L196.416 10.3975Q196.486 10.2217 196.829 9.84375Q197.171 9.46582 197.347 9.24609Q198.217 8.34961 198.771 7.59375Q199.334 6.83789 199.334 6.22266Q199.334 5.75684 199.008 5.5459Q198.463 4.42969 196.767 3.62109Q195.08 2.80371 192.636 2.76855Q192.891 2.98828 193.102 3.41895Q193.322 3.84961 193.533 3.99023Q193.533 5.4668 192.452 8.33203Q191.379 11.1973 189.938 14.0449Q188.497 16.8838 187.591 18.1406Q189.613 17.3145 191.485 15.7148Q193.357 14.1064 195.08 12.2344Q195.835 11.4785 195.95 11.4082Q196.416 12.2344 197.171 12.9023Q197.927 13.5703 198.824 13.7461Q199.334 13.7109 201.241 13.3506Q203.043 13.0693 203.763 12.9902Q203.763 14.1064 203.684 15.8379L203.614 18.791Q203.368 18.8262 202.427 18.9668Q202.067 19.002 199.668 19.3271Q197.277 19.6523 195.159 19.6523Q193.208 19.6523 192.056 19.3271Q191.88 19.4766 192.206 20.1621Q192.531 20.8389 193.287 21.7266Q194.043 22.6055 195.009 23.3262Q194.98 23.341 194.981 23.3496Q194.984 23.3613 195.044 23.3613L195.009 23.3262Q195.519 23.1855 199.061 22.7549Q202.603 22.3154 203.438 22.2803Q203.043 26.4199 203.043 29.0479Q201.926 29.0479 198.463 29.3379Q198.103 29.373 196.178 29.5137Q194.253 29.6631 192.636 29.6631Q190.474 29.6631 189.068 29.3027Q190.975 33.4775 191.845 33.6533Q191.986 33.5127 194.253 33.2754Q196.521 33.0469 201.346 32.8447Q206.171 32.6514 213.475 32.6514Q214.416 32.8623 215.962 33.0557Q217.509 33.2578 218.731 33.2578Q219.636 33.2578 220.172 33.1172Q220.717 32.9766 220.717 32.6514Q220.603 32.3613 220.26 31.4736Q219.926 30.5947 219.241 29.6367ZM144.896 1.72266Q144.5 1.72266 144.289 1.75781Q137.882 2.59277 131.941 3.11133Q125.999 3.62988 122.51 3.62988Q119.407 3.62988 118.942 3.16406Q119.196 4.53516 119.592 5.25586Q119.987 5.97656 120.814 6.80273L121.569 7.66406Q122.721 7.62891 123.477 7.50586Q124.233 7.37402 125.314 7.12793Q127.335 6.61816 129.242 6.5127Q129.277 7.01367 129.277 8.24414Q129.277 14.8623 127.045 21.7441Q124.813 28.6172 118.942 33.2227Q122.035 32.4668 125.041 30.3398Q128.047 28.2217 130.227 24.627Q132.406 21.0234 132.951 16.1631Q133.233 16.0576 135.228 15.7852Q137.232 15.5127 138.814 15.5127Q141.011 15.5127 141.512 16.1279Q141.195 20.4785 140.308 23.9062Q139.429 27.3252 138.163 28.6172L137.232 28.582Q135.86 28.5117 135.105 28.5117Q134.024 28.5117 133.057 28.6172Q133.197 28.8369 134.226 29.8389Q135.254 30.8496 135.975 31.6055L138.128 33.7676Q138.116 33.7676 138.11 33.7734Q138.099 33.7852 138.11 33.8203Q138.128 33.873 138.207 33.9082Q138.224 33.9169 138.228 33.9127Q138.241 33.9 138.128 33.7676Q138.163 33.7324 138.761 33.9082Q139.359 34.0928 139.605 34.0576Q141.081 32.9766 141.978 31.5Q142.883 30.0234 143.384 28.415Q143.894 26.8154 144.535 24.1172Q145.045 21.9902 145.221 21.3486Q145.906 18.7559 146.196 17.2793Q146.486 15.8027 146.486 14.8623Q146.486 13.8252 146.126 13.1396Q146.091 12.8496 145.713 12.3662Q145.335 11.874 144.72 11.54Q144.105 11.1973 143.384 11.1973Q142.382 11.1973 141.512 11.874Q139.719 11.918 137.733 12.1641Q135.896 12.4541 133.918 12.5596Q133.777 12.5596 133.777 12.0586Q133.777 10.8369 134.498 7.48828Q134.733 6.07718 134.744 6.07884L134.744 6.08203Q142.233 5.79199 144.359 5.79199Q146.592 5.79199 147.348 5.95898Q148.104 6.11719 148.429 6.5127Q148.499 5.94141 148.499 5.72168Q148.499 4.02539 147.524 2.87402Q146.557 1.72266 144.896 1.72266ZM93.5244 3.60352Q93.8145 3.09375 93.9551 2.55762L94.5703 2.55762L94.6758 3.09375L93.9991 3.74414Q93.5244 4.1748 93.041 4.68457Q92.5576 5.18555 92.2676 5.65137L92.1621 5.65137L92.7334 4.8252Q93.2432 4.10449 93.5244 3.60352ZM172.334 3.63867Q172.369 3.16406 172.509 2.95312Q172.544 2.83887 172.615 2.80371Q172.694 2.76855 172.835 2.7334L172.835 3.70898Q172.764 3.81445 172.615 3.99902Q172.474 4.1748 172.404 4.31543L172.263 4.31543Q172.298 4.10449 172.334 3.63867ZM52.3389 2.9707Q52.418 2.98828 52.4883 3.02344L53.5342 3.02344Q53.499 3.12891 53.4199 3.27832Q53.3496 3.41895 53.2793 3.59473Q52.7432 3.59473 52.541 3.4541Q52.3477 3.31348 52.1631 2.87402Q52.2686 2.95312 52.3389 2.9707ZM206.892 3.4541Q206.752 4.10449 206.497 4.35059L206.497 4.60547L205.952 4.60547Q205.996 3.91992 205.952 3.16406L206.602 3.16406Q206.787 3.19922 206.892 3.4541ZM83.0655 5.2207Q82.0459 4.02539 81.3955 3.7793Q80.6397 4.5 78.8379 5.11523Q77.0362 5.72168 75.6387 5.72168Q75.1289 5.03613 74.4258 4.5Q73.7315 3.95508 73.2217 3.95508Q73.0108 3.95508 72.8965 4.06934L73.0811 5.72168Q73.1866 7.05762 73.4414 8.20898Q73.6524 9.17578 73.6524 11.4785Q73.6524 13.5703 73.4414 18.4658Q73.4063 19.5117 73.3272 21.5068Q73.2569 23.502 73.2569 24.6973L73.292 25.9541L73.1514 29.5576Q73.4063 30.3486 73.8721 31.1396Q74.3379 31.9307 74.6631 31.9307Q75.1289 31.7461 75.3399 31.4561Q75.5596 31.1748 75.8145 30.6299Q76.1748 29.7686 76.6758 29.4082Q77.0713 29.1182 77.8711 29.0479Q78.3721 28.9775 78.6534 28.8896Q78.9434 28.8018 79.1631 28.5469Q80.209 29.083 81.2901 29.5576Q82.3711 29.373 82.7227 25.9365Q83.083 22.5 83.1973 16.6289Q83.2676 13.6406 83.3555 11.9883Q83.4434 10.3271 83.628 9.53613Q83.7334 9.14062 83.7334 8.56934L83.7334 8.17383Q83.7334 7.84863 83.8037 7.6377Q83.8828 7.41797 84.1641 7.12793Q84.0938 6.40723 83.0655 5.2207ZM122.835 5.58105Q123.195 5.65137 123.442 5.94141L123.696 5.94141L123.696 6.30176Q123.371 6.40723 123.336 6.40723Q123.231 6.40723 123.116 6.30176Q122.325 6.33691 121.824 6.04688L121.824 5.50195Q122.475 5.50195 122.835 5.58105ZM101.936 7.2334Q101.918 7.30371 101.769 7.45312Q101.744 7.50253 101.728 7.49986Q101.721 7.49873 101.716 7.48828Q101.698 7.45312 101.628 7.45312L101.443 7.45312Q101.443 7.2334 101.426 7.14551Q101.408 7.05762 101.487 6.80273Q101.804 6.94336 101.988 7.09277Q101.953 7.16309 101.936 7.2334ZM100.257 7.30371Q100.582 7.19824 100.767 7.09277L101.013 7.09277L100.907 7.45312L100.257 7.45312L100.257 7.30371ZM99.5362 7.62891Q99.501 7.59375 99.4307 7.45312L99.9756 7.45312L99.9756 7.59375L99.791 7.59375Q99.5713 7.66406 99.5362 7.62891ZM98.1211 8.29688Q97.7432 8.41992 97.6289 8.49023L97.4883 8.49023L97.4883 7.98926Q97.7432 7.98926 97.919 7.93652Q98.1035 7.88379 98.2793 7.69922Q98.5694 7.9541 98.6045 7.98926Q98.4991 8.17383 98.1211 8.29688ZM54.3604 8.40234Q54.3252 8.38477 54.3252 8.34961L54.3252 8.09473L54.8613 8.09473L54.9756 8.24414L54.9756 8.38477Q54.7559 8.41992 54.7207 8.45508Q54.6152 8.45508 54.501 8.4375Q54.3955 8.41992 54.3604 8.40234ZM79.4883 23.3262Q79.4883 25.1982 79.1983 25.6641Q78.2315 25.9541 78.0117 26.0596Q77.7217 26.209 77.4492 26.2617Q77.1856 26.3145 76.7901 26.2793L76.7901 11.5928Q76.7901 11.083 76.9307 10.4414Q77.001 9.86133 77.001 9.68555Q77.001 9.29004 76.7901 8.96484Q77.0362 8.49023 77.7393 8.38477Q78.4424 8.2793 79.4532 8.2793Q79.7432 9.39551 79.7432 11.3027Q79.7432 13.1045 79.5586 15.2578L79.4532 17.2793Q79.418 17.8506 79.418 19.002L79.4532 21.4541Q79.4883 22.1396 79.4883 23.3262ZM182.775 9.6416Q182.775 9.79102 182.696 9.89648L182.696 11.373L182.45 11.373L182.3 10.582Q182.019 9.17578 181.975 8.6748Q182.485 8.96484 182.696 9.21094Q182.775 9.57129 182.775 9.6416ZM58.3154 11.9883Q58.8955 11.9883 60.7676 11.6279L61.8486 11.4082Q62.1738 11.373 62.7276 11.4082Q63.2901 11.4434 63.6152 11.4434Q64.1514 11.4434 64.4414 11.3027Q64.7315 11.083 64.7315 10.8721Q64.7315 10.582 64.459 10.2217Q64.1865 9.86133 64.1162 9.79102Q63.6504 9.24609 63.4658 8.92969L62.209 9.14062Q61.8838 9.39551 60.3545 9.59766Q58.8252 9.79102 57.6035 9.79102Q56.5225 9.79102 56.3731 9.60645Q56.8037 11.0127 57.1817 11.5049Q57.5596 11.9883 58.3154 11.9883ZM101.918 9.6416L101.769 9.6416L101.769 9.43066L101.918 9.43066L101.918 9.6416ZM42.6006 12.3135Q42.9434 12.8848 43.4883 13.1748Q43.6641 13.2451 46.5293 12.999Q49.3945 12.7441 49.7901 12.5596Q49.9184 12.5179 49.9591 12.4339Q50.0216 12.3049 49.8779 12.0762Q49.6406 11.6982 49.0254 11.1094Q48.419 10.5117 48.2432 10.3623Q47.6983 10.6172 46.9072 10.7314Q46.1162 10.8369 44.7803 10.9424Q43.6992 10.9775 42.3018 11.1533Q42.2666 11.7334 42.6006 12.3135ZM203.464 11.5576Q203.253 11.6279 203.113 11.6982Q202.893 11.6631 202.752 11.5928L202.647 11.4434Q202.752 11.4082 202.84 11.3203Q202.928 11.2324 203.007 11.1973L203.684 11.1973L203.763 11.373Q203.684 11.4785 203.464 11.5576ZM201.311 11.9883L201.311 11.6982L201.742 11.6982L201.742 11.9883L201.311 11.9883ZM59.3965 15.1172Q59.6514 15.1172 59.792 15.1523Q60.6621 15.082 63 14.8887Q65.3379 14.6865 65.4434 14.5811Q65.7686 14.5811 65.7686 14.291Q65.7686 14.001 65.3379 13.4473Q64.9072 12.8848 64.2569 12.3486Q63.9756 12.1289 63.211 12.1289Q62.6045 12.1289 61.6817 12.3135Q60.7676 12.4893 60.5127 12.5244Q58.5 12.9551 57.6738 12.9551Q56.9883 12.9551 56.6631 12.7793L57.5596 14.5459Q57.8848 15.1523 58.6055 15.1523L59.3965 15.1172ZM43.9014 12.4541Q43.8486 12.4541 43.8135 12.3486Q43.8838 12.4189 44.0244 12.4893Q43.9541 12.4541 43.9014 12.4541ZM97.8487 25.1631Q97.9541 25.1631 98.1739 25.0928Q98.6397 24.9082 98.9473 24.5127Q99.2549 24.1172 99.501 23.4316Q99.7559 22.7461 99.8614 22.4297Q100.116 21.3486 100.239 19.5996Q100.371 17.8506 100.371 16.1982Q100.371 15.1172 100.327 14.6865Q100.292 13.8252 100.239 13.5Q100.187 13.1748 99.9141 12.9287Q99.6504 12.6738 99 12.5596Q98.4551 12.9902 96.3018 13.6055L95.001 13.7461Q94.5703 13.8604 94.2451 13.8604Q93.7793 13.8604 93.4541 13.5352Q93.2432 13.5352 92.628 13.3506Q92.4873 13.3154 91.9776 13.1924Q91.4766 13.0693 91.0459 13.0693Q90.4307 13.0693 90.0703 13.4297Q90.1055 13.79 90.2461 14.0449Q90.3955 14.291 90.4307 14.3262Q90.7207 14.7568 90.791 15.0469Q90.8262 15.1523 90.8262 16.1279Q90.8262 17.8154 90.7207 20.7861Q90.6153 23.7568 90.5362 24.9434L91.9776 26.3145Q92.6983 26.3145 92.9092 26.1738Q93.1289 26.0244 93.2784 25.6289Q93.419 25.1631 93.8145 24.6533Q94.21 24.5127 94.878 24.3721Q95.5459 24.2227 96.0469 24.2227Q96.3369 24.2227 96.5479 24.3018Q96.8731 24.3721 97.2334 24.7676Q97.5938 25.1631 97.8487 25.1631ZM42.627 14.6162Q42.3369 14.6162 42.2666 14.5459Q42.1875 14.6865 42.1875 14.8623Q42.1875 15.3369 42.583 15.8994Q42.9873 16.4531 43.4883 16.5938Q43.6641 16.6289 44.2442 16.6289Q45.7559 16.6289 47.5752 16.2334Q49.3945 15.8379 50.291 15.082L49.3154 13.6406Q47.6279 14.001 45.5361 14.3086Q43.4531 14.6162 42.627 14.6162ZM23.0713 18.1055Q22.21 18.6064 21.6035 18.6064Q20.9531 18.7559 18.2549 18.8262Q15.1875 18.8965 13.2275 19.0811Q11.2676 19.2568 10.6172 19.7578Q9.61523 19.6875 9.36035 19.6523Q10.1162 18.8965 10.4766 18.4658Q10.6875 18.3252 11.2061 17.9648Q11.7334 17.6045 12.2695 17.1211Q12.8145 16.6289 13.2803 15.9082Q16.6289 15.6533 19.3711 15.3369L23.5811 15.3369Q23.9062 15.9434 24.9873 17.7803Q24.5479 17.6396 24.3721 17.6396Q23.8711 17.6396 23.0713 18.1055ZM64.6172 16.2334Q64.2569 16.0137 63.6856 15.583Q62.9649 15.6182 62.4551 15.8379Q61.9541 16.0576 61.2686 16.4531Q60.3369 17.0596 59.5459 17.1738Q55.3711 17.8506 52.3828 17.8506L50.4756 17.8154Q49.8955 17.8154 49.6055 17.8506Q49.3154 17.9297 48.2344 18.167Q47.1621 18.3955 46.2569 18.3955Q45.7559 18.3955 45.1055 18.1846Q44.4551 17.9648 43.8486 17.71Q42.2666 17.0244 41.5459 17.0244Q41.291 17.0244 41.1856 17.0596Q41.2207 17.3496 41.3262 17.5693Q41.4317 17.7803 41.5811 17.9648Q41.8711 18.2461 41.9414 18.5713Q42.0469 18.9316 42.082 19.4414Q42.1172 19.9424 42.1172 20.083Q42.1172 20.8389 42.1875 21.1289Q42.3721 22.2451 42.4424 25.0928Q42.4776 27.5713 42.6358 29.1709Q42.8027 30.7793 43.4883 32.0361Q44.1738 33.3018 45.5713 33.6182Q46.0108 33.7324 46.3711 33.5654Q46.7315 33.4072 47.2324 33.0469Q47.3027 33.0117 47.6104 32.792Q47.918 32.5811 48.2432 32.502Q49.2451 32.291 52.084 32.0537Q54.9317 31.8252 56.9883 31.8252Q58.6758 31.8252 59.1856 32.001Q59.6162 32.1416 60.0469 32.7217Q60.4072 33.2227 60.6973 33.3721Q60.9434 33.5479 61.5235 33.6182Q61.6289 33.6533 61.8838 33.7061Q62.1387 33.7676 62.2793 33.873Q63.1055 33.7324 63.501 33.1348Q63.8965 32.5459 64.2569 31.4648Q64.4063 30.9551 64.5117 30.709Q64.8721 29.7686 65.1797 28.6172Q65.4873 27.4658 65.5576 27.2109L66.1289 24.9434Q66.3135 24.2578 66.3838 22.8955Q66.419 21.9199 66.5244 21.3135Q66.6387 20.6982 66.9551 20.2324Q67.0342 19.1514 66.7266 18.4307Q66.419 17.71 65.9531 17.2793Q65.4873 16.8486 64.6172 16.2334ZM97.0576 19.1514Q97.0576 20.6982 96.7676 21.1641L96.7676 22.4297Q96.3369 22.4297 95.9063 22.5352Q95.7217 22.5703 95.4668 22.6055Q95.2207 22.6406 94.8955 22.6406Q94.4297 22.6406 94.0342 22.4297Q94.0694 22.1045 94.0694 21.1641L94.0342 18.5361Q93.9991 17.71 93.9991 16.374Q93.9551 15.9785 94.4737 15.8203Q95.001 15.6533 95.7744 15.6533Q96.5479 15.6533 96.8379 15.6182Q97.0576 17.7803 97.0576 19.1514ZM130.499 18.6152Q130.279 19.0811 130.209 19.3271Q130.033 20.0479 129.831 20.6104Q129.638 21.1641 129.348 21.7617Q129.058 22.3506 128.917 22.6406L128.768 22.6758Q128.768 22.1748 128.908 21.709Q129.058 21.2344 129.383 20.4785Q129.673 19.8721 129.814 19.4414Q129.919 19.1865 129.954 18.9756Q129.998 18.7559 130.033 18.6064Q130.174 17.9648 130.323 17.5693L130.64 17.5693L130.719 17.6045Q130.719 18.1406 130.499 18.6152ZM51.4072 18.3955L51.3721 18.7207L50.9766 18.7207L51.0117 18.3955L51.4072 18.3955ZM62.4727 20.9531Q62.3145 21.8848 62.1387 22.4648L56.3731 22.7109Q56.3027 21.8848 56.3027 19.582Q58.6055 19.3975 62.71 19.2217Q62.6397 20.0127 62.4727 20.9531ZM50.7217 23.5811Q47.083 23.8975 46.2569 24.4424Q45.8613 24.1875 45.8613 22.4648Q45.8613 21.7793 45.8965 21.3135Q45.9317 20.8389 45.9317 20.5576Q47.4434 20.4082 51.082 20.2676L52.3037 20.2324Q52.3051 20.232 52.3065 20.232Q52.418 20.236 52.418 23.3613L50.7217 23.5811ZM22.6898 22.452Q22.7236 22.4706 22.79 22.4297L22.79 23.9766Q22.4648 23.8623 21.3838 23.8623Q19.8721 23.8623 17.4902 24.0645Q15.1172 24.2578 14.0361 24.4072Q13.9307 24.4072 13.3154 24.5742Q12.709 24.7324 12.6035 24.6182Q12.4541 24.3721 12.3135 23.2207Q12.1641 22.2803 12.1289 22.21Q12.5244 21.8145 14.4141 21.6211Q16.3037 21.4189 19.1865 21.3135Q21.9551 21.1641 22.5352 21.0586Q22.7549 21.2695 22.7549 21.5947Q22.7549 21.7793 22.6934 22.0342Q22.6406 22.2803 22.6582 22.3945Q22.6656 22.4387 22.6898 22.452ZM44.7276 21.6211Q44.6748 21.6738 44.3496 21.7793Q44.2793 21.8848 44.209 21.9551L44.1035 21.7441Q44.1387 21.4541 44.2266 21.3486Q44.3145 21.2344 44.3848 21.1641L44.8945 21.2695Q44.7803 21.5596 44.7276 21.6211ZM128.662 23.2207Q128.557 23.3965 128.486 23.5811L128.267 23.5811L128.232 23.291Q128.592 23.0361 128.662 22.7461L128.768 22.7461Q128.768 23.0361 128.662 23.2207ZM61.3916 27.5625Q61.1279 28.5469 60.8731 28.9424L56.2676 28.8018Q56.127 28.6523 56.127 27.8965Q56.127 27.29 56.2149 26.5693Q56.3027 25.8486 56.4434 25.5586Q57.0938 25.6289 59.6865 25.6992Q61.1983 25.6992 61.7432 25.7344Q61.6641 26.5693 61.3916 27.5625ZM110.558 27.29Q110.558 27.5713 110.698 27.7207Q111.454 28.2217 111.867 28.7578Q112.28 29.3027 112.28 29.9531Q112.28 31.1396 110.953 32.6514Q112.21 32.291 113.616 31.1924Q115.023 30.0938 115.233 28.9775Q115.453 28.6523 115.453 28.2217Q115.453 27.29 114.565 26.5166Q113.687 25.7344 112.535 25.7344Q111.85 25.7344 111.278 26.0244Q111.023 26.1299 110.786 26.5342Q110.558 26.9297 110.558 27.29ZM52.1279 29.6455Q52.0928 29.7334 52.0576 29.8037Q51.2315 30.0586 49.5 30.1641Q47.7686 30.2695 47.4873 30.3135L46.3711 30.3838Q46.3711 29.083 46.1514 26.3496Q47.6983 26.3848 52.0928 26.3848Q52.0225 27.3955 52.0225 28.0811Q52.0225 29.083 52.2686 29.4434Q52.1631 29.5576 52.1279 29.6455ZM22.3154 27.8613Q22.3154 28.5469 22.21 29.1182Q21.4541 29.2676 18.7559 29.4082Q15.1523 29.6279 14.2207 29.918Q14.1152 29.874 12.9551 29.8037Q12.9551 29.6631 12.9727 28.7051Q12.999 27.7559 12.8496 27.5361Q13.3154 27.0352 16.4092 26.8242Q19.5117 26.6045 22.4648 26.6045Q22.3945 27 22.3154 27.8613ZM113.651 28.6523Q113.687 28.4766 113.687 28.292L113.871 28.292Q113.871 28.5117 113.827 28.6699Q113.792 28.8369 113.687 28.9424L113.687 29.0127L113.616 29.0127Q113.616 28.8369 113.651 28.6523Z" fill="#FF0073"/>
	<defs/>
</svg>
