<svg width="250.000000" height="250.000000" viewBox="0 0 250 250" fill="none" xmlns="http://www.w3.org/2000/svg" xmlns:xlink="http://www.w3.org/1999/xlink">
	<desc>
			Created with Pixso.
	</desc>
	<path d="M200 0L50 3.8147e-06C22.3858 3.8147e-06 0 22.3858 0 50L0 200C0 227.614 22.3858 250 50 250L200 250C227.614 250 250 227.614 250 200L250 50C250 22.3858 227.614 0 200 0ZM134.986 149.609L109.4 149.609C106.606 130.789 117.034 118.596 126.194 107.887C132.719 100.259 138.6 93.383 138.6 85.4004C138.6 75.3906 132.008 68.9941 121.607 68.9941C112.818 68.9941 105.787 73.584 99.3906 80.2246L83.1797 65.3809C93.5801 53.6133 107.789 45.4102 125.221 45.4102C149.195 45.4102 166.822 57.8125 166.822 83.3984C166.822 97.2299 158.575 106.596 150.452 115.822C141.886 125.551 133.457 135.123 134.986 149.609ZM140.602 183.594C140.602 194.385 132.789 202.783 122.193 202.783C111.793 202.783 103.98 194.385 103.98 183.594C103.98 172.803 111.793 164.404 122.193 164.404C132.789 164.404 140.602 172.803 140.602 183.594Z" fill-rule="evenodd" clip-rule="evenodd" fill="#FFFFFF" fill-opacity="1.000000"/>
	<defs/>
</svg>
