<svg width="250.000000" height="250.000000" viewBox="0 0 250 250" fill="none" xmlns="http://www.w3.org/2000/svg" xmlns:xlink="http://www.w3.org/1999/xlink">
	<desc>
			Created with Pixso.
	</desc>
	<path d="M200 0L50 3.8147e-06C22.3858 3.8147e-06 0 22.3858 0 50L0 200C0 227.614 22.3858 250 50 250L200 250C227.614 250 250 227.614 250 200L250 50C250 22.3858 227.614 0 200 0ZM137.611 147.996L106.605 147.996C103.746 129.586 114.45 117.608 123.53 107.449C129.645 100.607 135.023 94.5892 135.023 87.9863C135.023 79.1973 128.822 74.6074 120.619 74.6074C112.416 74.6074 106.605 78.8066 100.404 85.0078L80.8238 66.9902C91.8101 54.3926 106.996 45.9941 125.013 45.9941C149.818 45.9941 169.203 57.8106 169.203 85.5938C169.203 99.3134 160.868 108.258 152.742 116.98C144.412 125.92 136.301 134.625 137.611 147.996ZM143.177 182.615C143.177 195.018 134.193 204.783 121.986 204.783C109.584 204.783 100.795 195.018 100.795 182.615C100.795 170.408 109.584 160.594 121.986 160.594C134.193 160.594 143.177 170.408 143.177 182.615Z" fill="#C4C4C4" fill-opacity="1.000000"/>
	<defs/>
</svg>
