<svg width="250.000000" height="249.999908" viewBox="0 0 250 250" fill="none" xmlns="http://www.w3.org/2000/svg" xmlns:xlink="http://www.w3.org/1999/xlink">
	<desc>
			Created with Pixso.
	</desc>
	<path d="M50 0L119.355 0C142.611 0 162.158 15.8772 167.75 37.3832L230 37.3832C241.046 37.3832 250 46.3375 250 57.3832L250 67.757L0 67.757L0 47.3832C0 46.6667 0.0753479 45.9678 0.218567 45.294C2.59033 19.8867 23.9728 0 50 0ZM0 82.9439L250 82.9439L250 230C250 241.046 241.046 250 230 250L20 250C8.95432 250 0 241.046 0 230L0 82.9439Z" fill="#FFFFFF" fill-opacity="1.000000"/>
	<defs/>
</svg>
