<svg width="250.000000" height="250.000000" viewBox="0 0 250 250" fill="none" xmlns="http://www.w3.org/2000/svg" xmlns:xlink="http://www.w3.org/1999/xlink">
	<desc>
			Created with Pixso.
	</desc>
	<path d="M200 0L50 3.8147e-06C22.3858 3.8147e-06 0 22.3858 0 50L0 200C0 227.614 22.3858 250 50 250L200 250C227.614 250 250 227.614 250 200L250 50C250 22.3858 227.614 0 200 0ZM84.2969 89L65.4981 89L61.2012 71.9102L39.2041 71.9102L34.9073 89L16.6944 89L39.7901 14.6104L61.2012 14.6104L84.2969 89ZM44.209 51.793L42.5977 58.0918L57.8076 58.0918L56.1963 51.793C54.1944 44.3955 52.2901 35.5088 50.2881 27.8916L49.8975 27.8916C48.0909 35.7041 46.0889 44.3955 44.209 51.793ZM106 36L227 36L227 55L106 55L106 36ZM227 70L106 70L106 89L227 89L227 70ZM24 108L227 108L227 127L24 127L24 108ZM227 142L24 142L24 161L227 161L227 142ZM227 176L24 176L24 195L227 195L227 176ZM24 210L227 210L227 229L24 229L24 210Z" fill-rule="evenodd" clip-rule="evenodd" fill="#C4C4C4" fill-opacity="1.000000"/>
	<defs/>
</svg>
