<svg width="250.000000" height="250.000000" viewBox="0 0 250 250" fill="none" xmlns="http://www.w3.org/2000/svg" xmlns:xlink="http://www.w3.org/1999/xlink">
	<desc>
			Created with Pixso.
	</desc>
	<path d="M200 0L50 3.8147e-06C22.3858 3.8147e-06 0 22.3858 0 50L0 200C0 227.614 22.3858 250 50 250L200 250C227.614 250 250 227.614 250 200L250 50C250 22.3858 227.614 0 200 0ZM101.438 99L86.3984 99L82.9609 85.3281L65.3633 85.3281L61.9258 99L47.3555 99L65.832 39.4883L82.9609 39.4883L101.438 99ZM69.3672 69.2344L68.0781 74.2734L80.2461 74.2734L78.957 69.2344C77.3555 63.3164 75.832 56.207 74.2305 50.1133L73.918 50.1133C72.4727 56.3633 70.8711 63.3164 69.3672 69.2344ZM110.419 55.6486L204 55.6486L204 70.027L110.419 70.027L110.419 55.6486ZM204 81.3784L110.419 81.3784L110.419 95.7568L204 95.7568L204 81.3784ZM47 110.135L204 110.135L204 124.514L47 124.514L47 110.135ZM204 135.865L47 135.865L47 150.243L204 150.243L204 135.865ZM204 161.595L47 161.595L47 175.973L204 175.973L204 161.595ZM47 187.324L204 187.324L204 201.703L47 201.703L47 187.324Z" fill-rule="evenodd" clip-rule="evenodd" fill="#FFFFFF" fill-opacity="1.000000"/>
	<defs/>
</svg>
