<svg width="250.000000" height="250.000000" viewBox="0 0 250 250" fill="none" xmlns="http://www.w3.org/2000/svg" xmlns:xlink="http://www.w3.org/1999/xlink">
	<desc>
			Created with Pixso.
	</desc>
	<path d="M200 0L50 0C22.3858 0 0 22.3858 0 50L0 200C0 227.614 22.3858 250 50 250L200 250C227.614 250 250 227.614 250 200L250 50C250 22.3858 227.614 0 200 0ZM67.2067 101.19C61.6891 104.999 54.609 107.392 47.6022 107.392C32.0016 107.392 19.7946 96.5029 19.7946 78.0947C19.7946 59.9062 32.4899 48.6025 45.8932 48.6025C61.2985 48.6025 69.3063 59.9062 69.3063 75.4092C69.3063 78.0947 68.9889 80.8047 68.5983 82.0986L34.1012 82.0986C35.2975 91.3027 41.3033 96.0879 49.6041 96.0879C54.194 96.0879 58.1979 94.6963 62.2018 92.2061L67.2067 101.19ZM96.0098 106L81.4102 106L81.4102 49.9941L93.3975 49.9941L94.3984 57.3916L94.7891 57.3916C99.6963 52.6064 105.409 48.6025 113.002 48.6025C125.111 48.6025 130.312 57.001 130.312 71.0879L130.312 106L115.59 106L115.59 72.8945C115.59 64.3008 113.197 61.2002 107.704 61.2002C103.09 61.2002 100.209 63.3975 96.0098 67.499L96.0098 106ZM46.0885 60.0039C40.2047 60.0039 35.0045 64.2031 33.9059 72.4062L56.7086 72.4062C56.7086 64.7891 53.2906 60.0039 46.0885 60.0039ZM173.404 121.308L173.404 138.593L208.511 138.593L208.511 188.495L196.011 188.495L196.011 183.49L173.404 183.49L173.404 214.691L160.806 214.691L160.806 183.49L138.296 183.49L138.296 189.008L126.309 189.008L126.309 138.593L160.806 138.593L160.806 121.308L173.404 121.308ZM138.296 150.312L138.296 171.796L160.806 171.796L160.806 150.312L138.296 150.312ZM173.404 150.312L173.404 171.796L196.011 171.796L196.011 150.312L173.404 150.312Z" fill-rule="evenodd" clip-rule="evenodd" fill="#FFFFFF" fill-opacity="1.000000"/>
	<defs/>
</svg>
