<svg width="250.000000" height="250.000000" viewBox="0 0 250 250" fill="none" xmlns="http://www.w3.org/2000/svg" xmlns:xlink="http://www.w3.org/1999/xlink">
	<desc>
			Created with Pixso.
	</desc>
	<path d="M50 0L200 0C227.614 0 250 22.3858 250 50L250 200C250 227.614 227.614 250 200 250L50 250C22.3858 250 0 227.614 0 200L0 50C0 22.3858 22.3858 0 50 0ZM75.6036 43.5928L75.6036 26.3076L63.0059 26.3076L63.0059 43.5928L28.5089 43.5928L28.5089 94.0078L40.4962 94.0078L40.4962 88.4902L63.0059 88.4902L63.0059 119.691L75.6036 119.691L75.6036 88.4902L98.211 88.4902L98.211 93.4951L110.711 93.4951L110.711 43.5928L75.6036 43.5928ZM40.4962 76.7959L40.4962 55.3115L63.0059 55.3115L63.0059 76.7959L40.4962 76.7959ZM75.6036 76.7959L75.6036 55.3115L98.211 55.3115L98.211 76.7959L75.6036 76.7959ZM188.397 69.0136L178.384 59L40.0001 197.383L50.0137 207.397L188.397 69.0136ZM131.402 212.392C138.409 212.392 145.489 209.999 151.007 206.19L146.002 197.206C141.998 199.696 137.994 201.088 133.404 201.088C125.103 201.088 119.097 196.303 117.901 187.099L152.398 187.099C152.789 185.805 153.106 183.095 153.106 180.409C153.106 164.906 145.098 153.603 129.693 153.603C116.29 153.603 103.594 164.906 103.594 183.095C103.594 201.503 115.802 212.392 131.402 212.392ZM165.21 211L179.81 211L179.81 172.499C184.009 168.397 186.89 166.2 191.504 166.2C196.997 166.2 199.39 169.301 199.39 177.895L199.39 211L214.111 211L214.111 176.088C214.111 162.001 208.911 153.603 196.802 153.603C189.209 153.603 183.496 157.606 178.589 162.392L178.198 162.392L177.197 154.994L165.21 154.994L165.21 211ZM117.706 177.406C118.804 169.203 124.005 165.004 129.888 165.004C137.091 165.004 140.509 169.789 140.509 177.406L117.706 177.406Z" fill-rule="evenodd" clip-rule="evenodd" fill="#FFFFFF" fill-opacity="1.000000"/>
	<defs/>
</svg>
