<svg width="250.000000" height="250.000000" viewBox="0 0 250 250" fill="none" xmlns="http://www.w3.org/2000/svg" xmlns:xlink="http://www.w3.org/1999/xlink">
	<desc>
			Created with Pixso.
	</desc>
	<path d="M50 0L200 0C227.614 0 250 22.3858 250 50L250 200C250 227.614 227.614 250 200 250L50 250C22.3858 250 0 227.614 0 200L0 50C0 22.3858 22.3858 0 50 0ZM47.6022 107.392C54.609 107.392 61.6891 104.999 67.2067 101.19L62.2018 92.2061C58.1979 94.6963 54.194 96.0879 49.6041 96.0879C41.3033 96.0879 35.2975 91.3027 34.1012 82.0986L68.5983 82.0986C68.9889 80.8047 69.3063 78.0947 69.3063 75.4092C69.3063 59.9062 61.2985 48.6025 45.8932 48.6025C32.4899 48.6025 19.7946 59.9062 19.7946 78.0947C19.7946 96.5029 32.0016 107.392 47.6022 107.392ZM81.4102 106L96.0098 106L96.0098 67.499C100.209 63.3975 103.09 61.2002 107.704 61.2002C113.197 61.2002 115.59 64.3008 115.59 72.8945L115.59 106L130.312 106L130.312 71.0879C130.312 57.001 125.111 48.6025 113.002 48.6025C105.409 48.6025 99.6963 52.6064 94.7891 57.3916L94.3984 57.3916L93.3975 49.9941L81.4102 49.9941L81.4102 106ZM192.397 70.0135L182.383 59.9998L43.9996 198.383L54.0132 208.397L192.397 70.0135ZM33.9059 72.4062C35.0045 64.2031 40.2047 60.0039 46.0885 60.0039C53.2906 60.0039 56.7086 64.7891 56.7086 72.4062L33.9059 72.4062ZM173.404 138.593L173.404 121.308L160.806 121.308L160.806 138.593L126.309 138.593L126.309 189.008L138.296 189.008L138.296 183.49L160.806 183.49L160.806 214.691L173.404 214.691L173.404 183.49L196.011 183.49L196.011 188.495L208.511 188.495L208.511 138.593L173.404 138.593ZM138.296 171.796L138.296 150.312L160.806 150.312L160.806 171.796L138.296 171.796ZM173.404 171.796L173.404 150.312L196.011 150.312L196.011 171.796L173.404 171.796Z" fill-rule="evenodd" clip-rule="evenodd" fill="#FFFFFF" fill-opacity="1.000000"/>
	<defs/>
</svg>
