<svg width="250.000000" height="250.000000" viewBox="0 0 250 250" fill="none" xmlns="http://www.w3.org/2000/svg" xmlns:xlink="http://www.w3.org/1999/xlink">
	<desc>
			Created with Pixso.
	</desc>
	<path d="M50 0L200 0C227.614 0 250 22.3858 250 50L250 200C250 227.614 227.614 250 200 250L50 250C22.3858 250 0 227.614 0 200L0 50C0 22.3858 22.3858 0 50 0ZM81 69.0961C81 52.5037 91.9835 38.2439 107.7 32L107.7 61.5585C107.7 70.1908 115.092 77.1887 124.21 77.1887L127.384 77.1887C136.502 77.1887 143.893 70.1908 143.893 61.5585L143.893 32.2405C159.292 38.6046 170 52.7133 170 69.0961C170 84.4059 160.649 97.7296 146.857 104.603L146.857 202.37C146.857 211.002 139.466 218 130.348 218L121.241 218C112.124 218 104.732 211.002 104.732 202.37L104.732 104.891C90.618 98.1069 81 84.6229 81 69.0961Z" fill-rule="evenodd" clip-rule="evenodd" fill="#FFFFFF" fill-opacity="1.000000"/>
	<defs>
		<filter id="filter_1_11_dd" x="100.732262" y="77.188721" width="50.124763" height="148.811295" filterUnits="userSpaceOnUse" color-interpolation-filters="sRGB">
			<feFlood flood-opacity="0" result="BackgroundImageFix"/>
			<feColorMatrix in="SourceAlpha" type="matrix" values="0 0 0 0 0 0 0 0 0 0 0 0 0 0 0 0 0 0 127 0"/>
			<feOffset dx="0" dy="4"/>
			<feGaussianBlur stdDeviation="2"/>
			<feColorMatrix type="matrix" values="0 0 0 0 0 0 0 0 0 0 0 0 0 0 0 0 0 0 0.25 0"/>
			<feBlend mode="normal" in2="BackgroundImageFix" result="effect_dropShadow_1"/>
			<feBlend mode="normal" in="SourceGraphic" in2="effect_dropShadow_1" result="shape"/>
		</filter>
		<filter id="filter_1_12_dd" x="77.000000" y="32.000000" width="97.000000" height="85.558701" filterUnits="userSpaceOnUse" color-interpolation-filters="sRGB">
			<feFlood flood-opacity="0" result="BackgroundImageFix"/>
			<feColorMatrix in="SourceAlpha" type="matrix" values="0 0 0 0 0 0 0 0 0 0 0 0 0 0 0 0 0 0 127 0"/>
			<feOffset dx="0" dy="4"/>
			<feGaussianBlur stdDeviation="2"/>
			<feColorMatrix type="matrix" values="0 0 0 0 0 0 0 0 0 0 0 0 0 0 0 0 0 0 0.25 0"/>
			<feBlend mode="normal" in2="BackgroundImageFix" result="effect_dropShadow_1"/>
			<feBlend mode="normal" in="SourceGraphic" in2="effect_dropShadow_1" result="shape"/>
		</filter>
		<filter id="filter_1_13_dd" x="77.000000" y="28.633118" width="97.000000" height="88.925583" filterUnits="userSpaceOnUse" color-interpolation-filters="sRGB">
			<feFlood flood-opacity="0" result="BackgroundImageFix"/>
			<feColorMatrix in="SourceAlpha" type="matrix" values="0 0 0 0 0 0 0 0 0 0 0 0 0 0 0 0 0 0 127 0"/>
			<feOffset dx="0" dy="4"/>
			<feGaussianBlur stdDeviation="2"/>
			<feColorMatrix type="matrix" values="0 0 0 0 0 0 0 0 0 0 0 0 0 0 0 0 0 0 0.25 0"/>
			<feBlend mode="normal" in2="BackgroundImageFix" result="effect_dropShadow_1"/>
			<feBlend mode="normal" in="SourceGraphic" in2="effect_dropShadow_1" result="shape"/>
		</filter>
	</defs>
</svg>
